<mxfile host="app.diagrams.net" modified="2021-07-04T04:24:00.592Z" agent="5.0 (Windows NT 10.0; Win64; x64) AppleWebKit/537.36 (KHTML, like Gecko) Chrome/91.0.4472.114 Safari/537.36" etag="tpymmQHZYjPVVE96Grcu" version="14.8.4" type="github">
  <diagram id="j_Ajn4rxoPSx_8hrEjlf" name="Page-1">
    <mxGraphModel dx="1422" dy="727" grid="1" gridSize="10" guides="1" tooltips="1" connect="1" arrows="1" fold="1" page="1" pageScale="1" pageWidth="850" pageHeight="1100" math="0" shadow="0">
      <root>
        <mxCell id="0" />
        <mxCell id="1" parent="0" />
        <mxCell id="ho1JeIDIVj71Nmh6ze2V-1" value="" style="shape=image;verticalLabelPosition=bottom;labelBackgroundColor=#ffffff;verticalAlign=top;aspect=fixed;imageAspect=0;image=data:image/png,iVBORw0KGgoAAAANSUhEUgAAAI0AAABzCAYAAAClxoHMAAAAAXNSR0IArs4c6QAAAARnQU1BAACxjwv8YQUAAAAJcEhZcwAADsMAAA7DAcdvqGQAAAAhdEVYdENyZWF0aW9uIFRpbWUAMjAyMTowNzowNCAxMTowNjoyNMUC71sAAAmdSURBVHhe7Z09cqNMEIZb31mMA5VPgE4gRRttuhkKrWSzDZVtgkMp29TRJkYnsE7gcrDoLvp6fhiGYYBpEBa2+qmasgzMD9D0NHK/ntkZAYYh8J/+yTDBsNEwZNhoGDJsNAwZNhqGzG0ZzekJFrMZzGYLeDrpbQwZx2hO8LQQF7VeFnyVGc1VPM1hrY1xfdBbmM9Eo9HEaQ7ie7+ivD7e6T3MrUP2NKfDGhbOFLZYP+HEVuX0hMeZYxawPogj1PS32qtjYL9S+wke53TAuMT0X7SrCB2bS3Wsos6hUqetz5tE/BmhJD+nMYg/K5zR0+htNtk5wX1if60kmT4GW0ljzzHxOc3L9ivFqttKnp5jty4kOCpBwNhMfTEWtSlLnGOLEqd4NZDWPm+TRk9z3ETmyRNFOYMl/MwywHtvpq08xVslePunn84D/N4c5SczxeUZoLEgd/D4ega8UYokU/t3S72hg/wdZMtxAnjTrHYFIWNzwLeprfR6MaARmbHKWsdneBGVWvu8UfBCWTR4AizGGeT4RMceT1J7MpufRvN0h3oYQ9WbxDH2YTvE4LFpT5Ml9WOtoobX0ecNEhwIS2cgvueIVrA/Kk/ipXgyR2EJu3MOGXoQ8bAfj3tYRfo7l5Cx9aKlzxuFFgi7rhqLmQIKorm8uBjlwra4sqcDBsDr4RdaBLrrHKLHHbzijVTTxBGexTwSMjYXM1ZrerKKfFDa+rxV8OJYdATC3qBQl2IKQPzBZRl81gLl0GmqYTqR1UPG5k5PSGMgXEyvbX3eKDRPc/cIf/Aqq6dTEEOSpipwtFju0J0nsXPcHyi+6rl7/AMp7i+I55H+1MHyp2zXEGO7Wa48QuDYXOpjdWjr80bhzD2GDPnLvXE4wNp6vfeXNR7FTIGJGA3zmeDpiSHDnoYhM3t7e2NPw5Dg6Ykhw9MTQ4aNhiHDRsOQYaNhyLDRMGQubjRSadBDZSDrLYp8Xi2lMb9fkjHbdgnrq3ru04c9DUNmokajconPr4/4KYDDGsJVk8S2BaT2bXr09QlgT8OQqRuN0TurUoYnen524pXG+Vg+nUU79bQGo7IUxRMD1dptGJc8TgqpjrCJ1L5CQiz34YGmL91erW3k9LQwbdfaaGg/BF9fZjyieM596jhGc4B1tAEwSeU5zLc98liECO7vN9NGGu9hZV04cdFWeyuXd74tBXRemse13OHvmcjPK/N8K2pQHMsKtFSmYZoQBqOaV/VF+9+ff8jpqLN9IvRznx4d05OYk3dAzmyMU8hNPiS28QsveqEjwlv9Fy9SnP407d49vpZaqCAo48Ib1JqbeYKX5yOOp0xHVe2/Wr9fikuc+/VxjGYJP9NYC+UGyDQe7qtPtMz6P8J7jp9P/+ANfzzcU+7IgHEl39qN6/QCaDPE8fSk17lPj5qnEZYv3GaWFHP4NNIspzquW6RxepJzeZ6ih9jDX3l37uD+Qe7qxpXBSk1SDFJ0cHcPopm3f/3cWH1cAxk4HhIf2deIVI1GvPHY0bx9s5FoHmNguTXTgwrq1OcKxw1Eph0MYsVByS8dIyzhmwhxNr+Np2hsp6BjXJXpj0wx9anAVyHeFK1pcFD7Nj3OfYqgy6+AQZkUgxWlKgqrar2FoE4K3xyhnNletGPtV4S1U/u9aA+LK1az9xf75DaPqs1tW+AK+FyxoK/9EOp9dZ/71OHMPYZMxys3w9Rho+nFbYv7eHpiyLCnYciw7okhw9MTQ4anJ4YMGw1Dho2GIcNGw5Bho2HIjGY04q+33tzh0fiaGqMpwp6GIfOFjOZraoymCHsahozXaJo0QAZHgyRKkHwnoJ6MOXCj/CmOIcQfvnjFtCNK0CCZLmpG06YBkojUSzzgISv2Y8kS2K86RGSUegFapRCEwXx2jdEkwYtpoVIR3VTHEp2q2JRCaS3XU01zJNbruQhXtU+15I43bfMTpVZOkaqn6dQA5fCO+5NvdSXRUmRMwxv4E+2J9bq0SiF8EY3RFKEFwvpGNPMA3nvUtx4zSapG06XL0fv3HsHRQepN5+BdT6VvvSF8EY3RJNHTlEFJOcr1kFQ8Ul+rqRKe6DWR7G1u7ECq54l9QnD7lL/X4qXqMQydmtEIujRAxc0ui21kCvcGSkLrXcholMGX/X1GjdEU4cw9hgwtEGYY5BMYDS8gNjV4emLI8PTEkGHdE0OGpyeGDE9PDBk2GoYMGw1Dho2GIcNGw5C5oNF85DpKNqx3+mjY0zBkbuZ7Gplk/pZCzrqowbCnYcjUjEY8kUJSUtU+Vf+KLOMDjzbJFzd0aqgq60LV64fg69eMTRTWO10Ur6cRq51E77+U7sizXpNk4DpKxf7ZCowuSfYFG4h6GI6NMBjWO40IXtQKzWmaZWqmyrWta5Oqdbs0VEqXVMvsdPoKodov653Gxh/TtK3XVDB0HSUtaxEKy8r0NNQlsN5pdK4eCKOn0VOTXcZY1Y25FH6jaVuvKZRADdXFdUmsdxodv9G0rtcUStc6Sr79iHibGhQIf5E1lSaM32iSTL5xqDhjBfvKQqbhiCUE8xTM0sSzWQTP38sFRuv7sWzng7+AW+70G59uczvPsZ9Y72WGUvtGWD6V4lW6h5Ewt8HVA2Hm8zFho2G901ThxHKGDE9PDBnWPTFkeHpiyPD0xJBho2HIsNEwZNhoGDJsNAyZkYzmWhqoAnr/vjxjxg97GobMSEbjWXtJqg6KXJoL4m33Sms/jXWOE4M9DUNHfCNc4l8txc3kl7/jMZV/Uu1k+tt15OfiOF2MWiBPz7G1nfJ/p9vadccsaPun2u7xxbEVVYP7z7Pda2Lvw3KJc5wi/T3NfmVpozJIjhv40eCXlzs8Bq8qQGw0UK8yfe8AayWM0u3kMN+Gpzs0t1uncx0rG5xmos1RJr0X7XVptMY6xynS32gSO7tP5+U+vwx8+xCxyK5dGtOLE7w8H9ExlKmmqi+P6kHEJau9NJgyefEAv6UR2WPD+r/kScML6aTHOseP48oxTZFcHo0bQHauY6URCfVoMDitWAaDDNJofdA5fiBXD4RFcrlw21ly1AnmV3TdcQqZvsE++bfwPmqKsUu3RmtS53gBHKO5g3shGroCMibIU4wI9uBZFmoYBC1UhDdYhCb7leUVLqSlGvUcP5Cap4nmGOfvt+aCXUwz5JP2ivjBfqT7iPJ87dbo0mBVURIY4RUKjxCo0RrrHKcGuk2H7jWS5Oul894ot7nHOK+8cpvz2mlvs7dTaGzX6Z/yyo1b5D8SsM/Tre+2LxjrHKcEZ+4xRAD+B87kUdyy82fxAAAAAElFTkSuQmCC;" vertex="1" parent="1">
          <mxGeometry x="280" y="190" width="196.17" height="160" as="geometry" />
        </mxCell>
        <mxCell id="ho1JeIDIVj71Nmh6ze2V-2" value="" style="endArrow=none;html=1;" edge="1" parent="1">
          <mxGeometry width="50" height="50" relative="1" as="geometry">
            <mxPoint x="480" y="240" as="sourcePoint" />
            <mxPoint x="570" y="240" as="targetPoint" />
          </mxGeometry>
        </mxCell>
        <mxCell id="ho1JeIDIVj71Nmh6ze2V-3" value="" style="endArrow=none;html=1;" edge="1" parent="1">
          <mxGeometry width="50" height="50" relative="1" as="geometry">
            <mxPoint x="570" y="240" as="sourcePoint" />
            <mxPoint x="570" y="370" as="targetPoint" />
          </mxGeometry>
        </mxCell>
        <mxCell id="ho1JeIDIVj71Nmh6ze2V-4" value="" style="shape=image;verticalLabelPosition=bottom;labelBackgroundColor=#ffffff;verticalAlign=top;aspect=fixed;imageAspect=0;image=data:image/png,iVBORw0KGgoAAAANSUhEUgAAAJwAAABeCAYAAADWmH3yAAAAAXNSR0IArs4c6QAAAARnQU1BAACxjwv8YQUAAAAJcEhZcwAADsMAAA7DAcdvqGQAAAAhdEVYdENyZWF0aW9uIFRpbWUAMjAyMTowNzowNCAxMTowNjoyNMUC71sAAAYqSURBVHhe7Z07duJKEIaLuxbhAM8KxArEJI4mdSZCSJwRkk0ihZA5tRMng1aAVoAdWOxFt/qhByCBBKYM+P98+tiom1LR+tXVjWmq8/7+nvZ6PQJAgs7r62tq/wbg7HRWq1V6f39vHwJwXv6zvwEQAYIDokBwQBQIDogCwQFRfqDg1hT2O9TpdGgY2UNtiIb6uZ1+yJZAWyoEV1yQjdLv0zCMNjt5HVJf1/cp/Km9f84+uMH+bT7CxTHNxwPq/mRxfQHR0N7ARw2vhzm3/VPZKzg3SChNU12ShU+uPhrT+NGGE2dES12/pJGjK38e5+yDG+zfxiOc481oyaLTxC/0TyluZ8jPwvGQonVEw1Jo7vMdt+afaNgvHWs/D1pHfM7cLof5KLNQMzfbN+f6jCjc68+mv50+v65PW5VREfaqfTT+DeamDc0Hpl47y32l7YcUsb/GnurD6pC6DrM2pu6w/QtC/WtrkyQNXFL/X015hLPHMhYpS07X+Qt+mAQpj3r82E1N0+K5jYs21JD8fOXis1e6Mj/3hsmFb9q5AbdQHPCx9GS+v6rbqJLZ2+6DWh9rzqvPV/RrUfg5O/2rzLtb7bL6ffYvh5ar1C71uAca4fq0SFQ4SIg7wuLy6zdhmjvOHFp97o48dSQfHNAZZVuFmmRRsn0EbmB9LPkzn9rRJKI3O1rkU4sm56v10aHRMqUsSHBHGJszzx6w8HHWFtfNaKuGiejvWFuv8Kmh/W+mpeAS+jCv9yD+hDtMzzsc+v3HXiV/QjNzkJy7X/o3xR9stSHeA+n+jOc04HDRf3yju+eqC9MMfzKyPrI/o4mxzXL5UA6tP2mlH/s0ySZQjkejSXZFazjJR5eCJ497rIY6n5bXM8drJ7jojcxN71Kvq/8QxqMZj5iLwCxgYnVRu5e2aj6jj9noecU0FtxaTWazGan7h35/xx2lfBgm1B3xAiYP1TG96BVMwfzNvl/IC5dwms2id5lPeZJuGlIUTu3N5NPDxnA0p2mxGthrT9PQx6Po9rSId3zixcxl3XT17BVcPO7alVCHuiw2c3fx3GQ5qh/2z0zMq6+u9qlLdjpDv+6UN6XQnbXpDvI2lcRjHn2MrUHW0H8w4c8ZURY98344ZM9S76PSTOFj61VkrU8m0CpOsi9A85Dq8oQ/UBPa4+dMJ+M98aTYdqhC+cSLkGxe7Iyet+rVwmVh5lQ72LqN5vz6SpNsb8YjVGN7lgY+lm26Lecmyidlv2SBr8tzPoc71f65wSd+gSgtV6nnwr7xubcMuRW4di5EcOCngJAKRMEIB0TRI5z9G4Czg5AKREFIBaJAcEAUCA6IAsEBUSA4IEqF4OzegAP7LvXuIOzNBC3BCAdEqRCc+Wx8+o2feQO3C0Y4IEql4KrmZ/mOblUuba8juBoajXBKbIO53fbGJelNiw23ALSggeDM/kw3eMo/Wu6MlsX+RwBacFhwdi9ktgkEgFPAogGIclhwzh2pPfKrT7zFC06nwQjn0QPP1+Lx33wTi1lE2AcAtKBRSNX7M13zXRnqbZFpLym+/AWAFuATv0AULBqAKBAcEAWCA6JAcEAU7EsFomCVCkRBSAWiQHBAFAgOiALBAVEgOCAKBAdEgeCAKBAcEAWCA6JUCk7vQR1GtA7LuUJ3v0dkY6+qKlv7VffayfKYlo+VKdfXtQHXh/rX1jZ5ntA816bJ51nOn6rabORTtbk9y+k56+wcsm1ygmZ5UBU2F2ie8xRcK/WC20rsqo/tveBWFKXnVT3n8DEjwK3Tq0YswiJRLbhOTpjDFSm/TSkSmZ2E3Qc7H5Rtc8GunZvgSMEpsbHAKLDZi1UpZ34+HR7hrN1yuZ5EtKCa4wS3/kcvPJqpjMpffv2xD/amOU5wVhQqEW5GNPyikEoePfFQGY8fN5POqlUrVqpXz5Eh1aNZEpCbJYHlMqDFl33BjfqyHDZPY50815ZpjxJ8SeLVg0/8AlFOWKUC0B4IDogCwQFRIDggCvalAlGwSgWiIKQCUSA4IAoEB0SB4IAoEBwQBYIDokBwQBQIDogCwQFRIDggCgQHRIHggCgQHBAFggOiQHBAFAgOiALBAVEgOCAKBAcEIfofXvx/LjmVOCgAAAAASUVORK5CYII=;" vertex="1" parent="1">
          <mxGeometry x="500" y="370" width="156" height="94" as="geometry" />
        </mxCell>
        <mxCell id="ho1JeIDIVj71Nmh6ze2V-5" value="" style="endArrow=none;html=1;exitX=-0.01;exitY=0.564;exitDx=0;exitDy=0;exitPerimeter=0;" edge="1" parent="1" source="ho1JeIDIVj71Nmh6ze2V-1">
          <mxGeometry width="50" height="50" relative="1" as="geometry">
            <mxPoint x="400" y="400" as="sourcePoint" />
            <mxPoint x="170" y="280" as="targetPoint" />
          </mxGeometry>
        </mxCell>
        <mxCell id="ho1JeIDIVj71Nmh6ze2V-6" value="" style="endArrow=none;html=1;" edge="1" parent="1">
          <mxGeometry width="50" height="50" relative="1" as="geometry">
            <mxPoint x="170" y="280" as="sourcePoint" />
            <mxPoint x="170" y="400" as="targetPoint" />
          </mxGeometry>
        </mxCell>
        <mxCell id="ho1JeIDIVj71Nmh6ze2V-7" value="" style="shape=image;verticalLabelPosition=bottom;labelBackgroundColor=#ffffff;verticalAlign=top;aspect=fixed;imageAspect=0;image=data:image/png,iVBORw0KGgoAAAANSUhEUgAAAJ4AAABdCAYAAABU+d9hAAAAAXNSR0IArs4c6QAAAARnQU1BAACxjwv8YQUAAAAJcEhZcwAADsMAAA7DAcdvqGQAAAAhdEVYdENyZWF0aW9uIFRpbWUAMjAyMTowNzowNCAxMTowNjoyNMUC71sAAAaLSURBVHhe7Z09duI8FIZvvrWYFCQrMCuAaVJNO51dQpOOkm4aKEP3tVOlGbwCvAJOipi9eCRZNrItbNkELpD3OUcnWD/XAr/oh/j6Pux2u/Tp6YkAuCT/6b8AXBQID7AA4QEWIDzAwvcU3n5Fo4cHengY0Wqv88BFsQhvT6uRvCiVNBpRuIpEqQEuIOiJ+4gXx7SeTWgAkYEvoFF4/jKhNE1VSjYB+So3ptmvVTbyeVPaqvItTT1VCIATziOeN36jrRCfIv5Df6XyalNtPk2HFO0jCo0pexTKaXpPUTgy8rSAO7Jfhfq8MoklQFS2so9EeWm5YFkmWGhvJ96TzB+tKJJ1VR3xXnUp6ID8z0WZJF36lIqiVIx4Oi9nkwrpqbJgIw6TZSpGQXHsp1nVQ1vnpAy5kyx9i538/MfKdcrPVeu3Yzvj/R9SIHJBVzruagc0zObbdvyANomchhMSYtT44hpm07e40FnW7rPDqBfR71msXhXLgGRj2LeUm+daL46sT3u0CzYkNCvqvdFYZwF3OgovoY/s+rQSzMUFUes+j3781BcwmNNblkne47P6S/GHsOrI/pN26kVA83xR6Y1putVrzOid1irTKBd407nIkcT0YTtZ53Y+LV/H4p2BvnQTXnGBfBoO1IvLknwICYB7wFl4auE9yWRH/k/6wfF1Hwz1znpNi3zuE5uY1SjMpkJbuWC/WhQj2ottXuzbDvSmUXjxbFDs8AZCdNloI9Zu2ynPNONNaZ5vrPO+DSY0i7MJ2Fou+16s317t67G+7UBv3KdaX2wMlnJBzbuYHr8ltAl8PUJJZL/+L35HVOXL/DdHjey72NRsjfVblb7tQD9wIyhgoeOu9lzoH2YbE36ovSeuRHjgu4GpFrCAEQ+woEY8/RqAi4GpFrCAqRawAOEBFiA8wAKEB1iA8AALFuFpv4lRsz9EFLbXAeAYGPEACxbheTTdppRy3XMHvgUY8QALVuHZ1m8qL79FKcQNSuA0nEY8KbrJOqBN7vY3XIhjXQhADxyEF9G7EJnpd+BNt5Q/VACAPrQLT/uyPj9iqwG+DmwuAAvtwvMeSfr87z7xUzH4OhxGvDG9iPVcPPtdONtkmw19AEAPnKZa6XO69Nc00T+nLIbJ4YE2APQAdyADFrC5ACxAeIAFCA+wAOEBFuBXC1jArhawgKkWsADhARYgPMAChAdYgPAAC1cpPOXfAb+OuwYjHmABwgMsQHiABavw8jXWfnWILVv2s9XPV6msw1Q7o16jnSg8YtvArGMLN1Aqr9vJz6/+WsrbKPVbpFElhGNhN0/VdWkRzzdL1eK2/re2v2Xkv8yqbAIdi7USp/UQv1bHpa3EmlXt/KUoNY4tdppt29rp8xm2s/iyZqzYep26HXcy+4d4tpn9w7G0bfY5j4F7OJXtMzv0t73/ze1vnePCq1wslVd8KPpDaqxTP5a45NnqiExDCNlFqempVEfb6RXIOHt/JWG1Uv1M6l+oAy79b2p/+1zvGu/5sfzQIBVhUceN1b6+64kxTclk80AKXrrHXtv/pT9xmy9xHgY/TwPSMfc0Y3oVSsyC8uWh8zVO/W9ofwfc9OZCjBhFNO1D0kGTz4oUnRAaLXWUbpnMSOQZ8okLsmwTxDQbSHGV16lt/W9rf8v0FJ5HeYDts1ENGa+CJOsAzef29W2zr0fEYO72KLfxmxBUshS9X9O7VE7H/tfa3wG9R7zBUHy9jVj9cof3pb628YwGxTYuolAaD+Z6NMinoV/lKUjuEjvuXO3Y7MtRTk95WjhrQwVRWJlqZV/Mbaj5xXHpf2P7O6Df5kKiF9NiASyTXASrnVrLJsElTx4X9rT9ahtJqdxSR9mtreDdqdovLfT1LrYoF+epnk8dG3WqXXHqv1F+wlu5OnAHMmDhpjcX4Hb5ZsJDQOZrAVMtYAFTLWABfrWABUy1gAVMtYAFCA+wAOEBFiA8wAKEB1iA8AALEB5gAcIDLEB4gAWr8Br9YQ3a/Eob7Zg+pba7hs3yY3XA7XL0DmR512txy2vd1U7Wsd2Ra94le8xOm+3sztxmn1lw25xw63uVuq+trU17novPKbh1TljjtfmV9qSLzyy4WXoKz82v9BTEiKftmukSPrPgEvQTXke/0k4gPu63oJ/wXPxKe3Nun1lwDfScasf0Jj3b15NiDTahDYlNwpcgH90gzOvHNui0GFKyPcMIC1jAHciAhRN2tQD0B8IDLEB4gAGifyiHTttWkuQ5AAAAAElFTkSuQmCC;" vertex="1" parent="1">
          <mxGeometry x="110" y="400" width="158" height="93" as="geometry" />
        </mxCell>
        <mxCell id="ho1JeIDIVj71Nmh6ze2V-8" value="" style="endArrow=none;html=1;exitX=0;exitY=0.75;exitDx=0;exitDy=0;" edge="1" parent="1" source="ho1JeIDIVj71Nmh6ze2V-1">
          <mxGeometry width="50" height="50" relative="1" as="geometry">
            <mxPoint x="400" y="400" as="sourcePoint" />
            <mxPoint x="240" y="310" as="targetPoint" />
          </mxGeometry>
        </mxCell>
        <mxCell id="ho1JeIDIVj71Nmh6ze2V-9" value="" style="endArrow=none;html=1;" edge="1" parent="1">
          <mxGeometry width="50" height="50" relative="1" as="geometry">
            <mxPoint x="240" y="310" as="sourcePoint" />
            <mxPoint x="240" y="370" as="targetPoint" />
          </mxGeometry>
        </mxCell>
        <mxCell id="ho1JeIDIVj71Nmh6ze2V-10" value="" style="endArrow=none;html=1;" edge="1" parent="1">
          <mxGeometry width="50" height="50" relative="1" as="geometry">
            <mxPoint x="240" y="370" as="sourcePoint" />
            <mxPoint x="340" y="370" as="targetPoint" />
          </mxGeometry>
        </mxCell>
        <mxCell id="ho1JeIDIVj71Nmh6ze2V-11" value="" style="endArrow=none;html=1;" edge="1" parent="1">
          <mxGeometry width="50" height="50" relative="1" as="geometry">
            <mxPoint x="340" y="370" as="sourcePoint" />
            <mxPoint x="340" y="510" as="targetPoint" />
          </mxGeometry>
        </mxCell>
        <mxCell id="ho1JeIDIVj71Nmh6ze2V-12" value="" style="shape=image;verticalLabelPosition=bottom;labelBackgroundColor=#ffffff;verticalAlign=top;aspect=fixed;imageAspect=0;image=data:image/png,iVBORw0KGgoAAAANSUhEUgAAAJwAAABbCAYAAACGVexBAAAAAXNSR0IArs4c6QAAAARnQU1BAACxjwv8YQUAAAAJcEhZcwAADsMAAA7DAcdvqGQAAAAhdEVYdENyZWF0aW9uIFRpbWUAMjAyMTowNzowNCAxMTowNjoyNMUC71sAAAYvSURBVHhe7Z29dqpcEIYn37VICpMrgCuQ06RKezootUlnaXcaLbU7bao0B64gXIHLIngvfLN/+FNQ0GQ08X3WYgX2xg2E15m9cQ9zt16vs4eHBwJAgv/sXwBEgOCAKBAcEAWCA6I0CG5LC++O7u52Fs+jcBFzbYXtgjxd79GiVnGlfLfz/YF0t3BJQquJTw5uFjgH9VikTprNXcq4KnPnqS3j0ijIXC5T5eTOeS8A+tPZwg1GS3qPArORvNI/ZeX2XFTujkOKtzGFFdfshcodbykOvUrZou6ij1Jvf9HaFh9blXsLiuPQnqP6TLNL3S7yfUxdGNfPql6fXws4ia4WzhBlLDldF0S8mc6t1XMzs2v52c6LbqgrR9ovLG95nuUSZNHe+apLcHf2q9fzd6yhnhdY+ZPoOUp1aMh3rBNuQFGaEd9SYpFYXNZXymUZ8Y02ReuP06yFO7ftV9rKLW+VICIWBu+3pJEtKonpzyTRa/zl0m1x36E8X7aIs5VacYkFWNRrO990LHCUnoJLaWPuz1GCKd/ggVob0K9neweDKS1NIQ3uH/VfSjbcan+C6di2z22Np0YElNCm1hgL5WXEZ9DC9oPWeiWg6ThvbETj93fSm+mGW1QkNHGsS3V80hrcOxboQj/BxW/2n+3S0NEr35tCUECKzoLbqs63b+RG7jP9ajUbMqxmPCDQLo0HIouZ/SIE9LTvN9txhvzVUaxolo8i1GDEC82goqivuNTKsuxzLKA5KLhk4hQjM4fFZqwB983ex+1uSopkQr52cw75th9GwVNDP+0AgzFN84F3fq3sMieJcbRlfcWlFguPevVOoA/dXarLHf656oA3db7lUecS5J17xlWDgxNMzmiZUsQNlU2p6/xr+nDMfj04h282H049h3PYArHgIri070jPUepXYR/UHlzgwn4CVyI4cCtgijkQBRYOiKItnF0H4MuBSwWiwKUCUSA4IAoEB0SB4IAoEBwQpUFwNm7AOxxvEIfH9wFgF1g4IEqD4AY0fs8ou4Y5b+DHAQsHRGkUXFP/TJflU4VCTBQCp9HJwimx+auAIjuXPx3OeNtWAtCDDoKL6Y3F5c5fiqnlg/E75UH4APThuOBs7ObjPYYQ4HwwaACiHBfc4J5UjPz6A494wfl0sHAjeuL+WjL5UwSxmEGE3QCgB51cqorNnLsr8u1jkdkwLV8gA0APMOMXiIJBAxAFggOiQHBAFAgOiIK4VCAKRqlAFLhUIAoEB0SB4IAoEBwQBYIDonQWHOJQwWcACwdEgeCAKBAcEKVVcJ8Rh6rbULlFF2Ve06Z+YO1YDcc72E4c7pdVqda37QPkUD9t7WJyhAZZnsm0yCnaM0dokWu0yIlq8phW87CqfWp5WW1O02oa1bZ2jrVtzru8Di4x+VaR6/RiNAhu/8Yp9E0/RXBV5TDH27GiqHyu6TPHy8x17Bxe7cQiLBPwAln2Xap4HGqeVjxfTGqjs7HXsfKrbfOC6J+LcuFBg82dRXObtVkt1QzS58MWrkg3WS42AS8QZ19wknGo23/0qhK1Tb/g1WCIp71KGiycYByqFcXqrRyVxuEnuVS+jhc2lcnkt0m2m6NGrRipXoxGlyoXhzqiZTond+UXfSyfok97UY566Q43X0+uOxtSipctXgzM+AWiXHjQAG6NEwSHZLrgdOBSgShwqUAUxKUCUeBSgShwqUAUCA6IAsEBUSA4IAoEB0T5ZMF1y7UKbhdYOCAKnsMBUWDhgCiNglMzfL3Fth4HujMDJI8VLWJKbb9Nb+/04ertmLZrIHb0Zmi1cMnEIWcztUEndgbwrhBWvp6hq/dpmUWrxOZMiOZpHsCS0vNrOe1bi9GnIherPhZNyIHofiaqD7dLY+zoTjyn3qcWZGyof9bEmO7GuJYgdvTWaO/DPd7XLZYzJJcS2qR2WxE8FUl7G7FRWa0xrogdvTmuYtCA2NHboV1w6496HyrdsH1zaejY7S4ciw1F7OjN0S64hDvuxVuMYgqVmwumPa1OU2yo+jXCs9uIHb012gUXRJQOZ7Zf5dPKnVO6PNhja2Q/NtSh1+e/hXARO3pbNP7SoCPt1eOOEwQGwCGuYtAAbgcIDghC9D9OMmwlSHQYdgAAAABJRU5ErkJggg==;" vertex="1" parent="1">
          <mxGeometry x="280" y="510" width="156" height="91" as="geometry" />
        </mxCell>
      </root>
    </mxGraphModel>
  </diagram>
</mxfile>
